<svg width="40" height="40" viewBox="0 0 40 40" fill="none" xmlns="http://www.w3.org/2000/svg">
<path d="M3.75166 15.0282H36.2477C36.2477 15.0282 37.1557 14.2842 36.2477 13.3362L20.0037 3.77625L3.75166 13.3322C3.75166 13.3322 2.62766 14.3442 3.75166 15.0282ZM37.3077 34.9122L35.3477 33.2082C35.2397 33.1162 34.9957 33.0402 34.7957 33.0402L5.60366 33.0842C5.40766 33.0842 5.14766 33.1562 5.02766 33.2442L2.71966 34.9202C2.59966 35.0082 2.50366 35.1682 2.50366 35.2762V36.0242C2.50366 36.1322 2.66366 36.2242 2.86366 36.2242H37.1477C37.3437 36.2242 37.5077 36.1362 37.5077 36.0242V35.2802C37.4997 35.1682 37.4117 35.0042 37.3077 34.9122ZM32.1597 16.3522H35.1517V31.3482H32.1597V16.3522ZM27.2637 16.3522H30.2557V31.3482H27.2637V16.3522ZM10.2077 16.3522H13.1997V31.3482H10.2077V16.3522ZM5.31166 16.3522H8.30366V31.3482H5.31166V16.3522ZM20.0637 31.3282C20.2917 31.3282 20.5197 31.2962 20.7357 31.2322V29.4162C21.6637 29.2082 22.3717 28.8082 22.8597 28.2162C23.3437 27.6282 23.5877 26.9042 23.5877 26.0482C23.5877 25.5362 23.5237 25.1122 23.3997 24.7722C23.2757 24.4322 23.0997 24.1442 22.8757 23.9122C22.6517 23.6762 22.3757 23.4762 22.0517 23.3082C21.7277 23.1402 21.3677 22.9722 20.9717 22.8082L20.0317 22.4162C19.8757 22.3522 19.7197 22.2842 19.5637 22.2122C19.4077 22.1402 19.2677 22.0522 19.1397 21.9522C19.0157 21.8522 18.9157 21.7322 18.8437 21.5842C18.7717 21.4362 18.7357 21.2602 18.7357 21.0522C18.7357 20.8122 18.7837 20.6162 18.8757 20.4642C18.9677 20.3122 19.0877 20.1962 19.2357 20.1122C19.3837 20.0282 19.5477 19.9722 19.7277 19.9482C19.9117 19.9242 20.0917 19.9082 20.2677 19.9082C20.5597 19.9082 20.8197 19.9202 21.0517 19.9482C21.2797 19.9762 21.4877 20.0082 21.6717 20.0482C21.8557 20.0882 22.0277 20.1442 22.1877 20.2042C22.3477 20.2682 22.5077 20.3282 22.6637 20.3922C22.9357 19.8082 23.1037 19.2122 23.1637 18.6082C22.7357 18.4602 22.3277 18.3442 21.9437 18.2562C21.5557 18.1682 21.1557 18.1082 20.7357 18.0762V16.4642C20.4957 16.4002 20.2677 16.3722 20.0477 16.3722C19.8197 16.3722 19.5917 16.4042 19.3757 16.4642V18.1242C18.4357 18.2402 17.6997 18.5682 17.1677 19.1122C16.6357 19.6562 16.3677 20.3962 16.3677 21.3362C16.3677 21.7762 16.4237 22.1442 16.5317 22.4482C16.6397 22.7522 16.7997 23.0162 16.9997 23.2402C17.2037 23.4642 17.4477 23.6562 17.7277 23.8202C18.0077 23.9842 18.3237 24.1362 18.6677 24.2842L19.4997 24.6442C19.6757 24.7282 19.8597 24.8082 20.0477 24.8802C20.2357 24.9522 20.4037 25.0402 20.5557 25.1482C20.7077 25.2522 20.8317 25.3842 20.9317 25.5482C21.0317 25.7082 21.0797 25.9162 21.0797 26.1682C21.0797 26.6682 20.8997 27.0322 20.5397 27.2562C20.1797 27.4802 19.6717 27.5922 19.0117 27.5922C18.5717 27.5922 18.1597 27.5602 17.7757 27.4922C17.3877 27.4242 16.9757 27.3002 16.5397 27.1242C16.4237 27.4602 16.3237 27.7802 16.2437 28.0882C16.1597 28.3962 16.1037 28.7002 16.0717 29.0042C16.3317 29.1082 16.5837 29.1962 16.8237 29.2722C17.0637 29.3442 17.3077 29.4042 17.5517 29.4522C17.7957 29.5002 18.0557 29.5322 18.3277 29.5522C18.5997 29.5722 18.9077 29.5842 19.2517 29.5842H19.3757V31.2442C19.6037 31.2962 19.8357 31.3282 20.0637 31.3282Z" fill="#558EFF"/>
</svg>
