<svg width="16" height="16" viewBox="0 0 16 16" fill="none" xmlns="http://www.w3.org/2000/svg">
<g clip-path="url(#clip0_0:54)">
<path d="M15.6466 6.79995C15.0802 6.35355 14.0226 6.73435 13.1986 7.64955C12.429 7.43515 11.7458 7.48795 11.1634 7.81595C10.0482 8.44475 9.62578 9.89115 9.46898 10.9903C9.44498 11.1599 9.42258 11.3327 9.39858 11.5055C9.14898 13.4079 8.91218 15.2063 6.65618 15.2063C6.61938 15.2063 6.58258 15.2063 6.54418 15.2047C5.90418 15.1887 5.44338 14.9903 5.13618 14.5967C4.56978 13.8703 4.66738 12.6831 4.73938 12.1903C4.96338 12.0895 5.12178 11.8687 5.12978 11.6079L5.16338 10.6335L6.35858 10.2783C6.50738 10.2335 6.62258 10.1391 6.70578 10.0223C6.92018 10.0703 7.18738 10.0591 7.37618 9.94075C7.70738 9.73435 8.19058 9.33755 8.79218 8.58715C9.44978 7.76635 9.61138 7.10555 9.62738 6.67675C9.63538 6.37115 9.42258 6.06075 9.26418 5.97435C9.10578 5.88795 9.07698 6.04955 9.10738 6.35355C9.15218 6.81115 9.08018 7.50715 8.48978 8.26395C8.47858 8.27675 8.46898 8.28635 8.45938 8.29915L8.46418 8.26555C8.60498 8.04795 8.72658 7.81915 8.81938 7.57435C9.77938 5.03195 7.70418 2.06555 7.61458 1.94075C7.59538 1.91355 7.56978 1.89595 7.54418 1.87515C7.60338 1.73915 7.58898 1.61595 7.48978 1.55195C7.33458 1.45115 7.09138 1.14875 6.95058 0.876747L6.70098 0.399947C6.56178 0.129547 6.26738 0.0815474 6.04658 0.292747L5.42738 0.894347C5.20498 1.10555 5.24818 1.39195 5.51858 1.53435L5.95538 1.75835C6.22578 1.90075 6.52178 2.15675 6.61778 2.33115C6.68978 2.46075 6.85618 2.47995 7.02738 2.39195C7.20338 2.64795 8.91218 5.24155 8.12818 7.31675C8.09618 7.40155 8.04658 7.47995 8.00498 7.56155L8.00018 7.56315C7.95218 7.55195 7.90578 7.53435 7.85618 7.53435C7.73298 7.53435 7.61778 7.57115 7.52178 7.63195L7.66738 7.77115C7.57938 7.87835 7.52018 8.00955 7.52018 8.15835C7.52018 8.19515 7.52818 8.23035 7.53458 8.26555C7.25938 8.56635 6.91538 8.83515 6.49938 9.06395C6.34578 8.97755 6.16018 8.95035 5.97938 9.00475L4.52338 9.43675L2.96498 8.94395C2.78738 8.88795 2.60178 8.91195 2.44978 8.99515C1.70738 8.55515 1.20178 7.99355 0.944178 7.31675C0.123378 5.14235 2.04178 2.39675 2.06098 2.36955C2.06258 2.36475 2.06258 2.35995 2.06738 2.35515C2.06738 2.35515 2.11218 2.39835 2.16818 2.44795C2.22418 2.50075 2.34578 2.40155 2.44178 2.22715C2.53618 2.05115 2.83538 1.79515 3.10578 1.65435L3.54098 1.42875C3.81298 1.28795 3.85458 1.00155 3.63378 0.788747L3.01298 0.188747C2.79218 -0.0240526 2.50098 0.0239474 2.35858 0.295947L2.11058 0.772747C1.96818 1.04475 1.72658 1.34555 1.57138 1.44795C1.41298 1.54715 1.34418 1.68315 1.41298 1.74715L1.53938 1.86555C1.50898 1.88635 1.48178 1.90875 1.45778 1.94075C1.36818 2.06555 -0.707022 5.03195 0.252978 7.57435C0.576178 8.42555 1.19698 9.11835 2.10578 9.64635C2.12978 9.90075 2.30418 10.1279 2.56338 10.2111L3.83538 10.6127L3.80178 11.5615C3.79698 11.7583 3.87858 11.9375 4.00978 12.0655C3.92178 12.6527 3.80498 14.0895 4.55218 15.0479C4.99858 15.6207 5.66258 15.9215 6.52658 15.9423C6.57298 15.9455 6.61778 15.9455 6.66258 15.9455C9.56018 15.9455 9.87698 13.5407 10.1314 11.6031C10.1538 11.4335 10.1762 11.2639 10.2002 11.0959C10.389 9.77275 10.8594 8.83675 11.5266 8.46075C11.861 8.27035 12.2626 8.21755 12.7202 8.29755C12.1458 9.24635 12.0738 10.2367 12.597 10.6527C13.2034 11.1327 14.3778 10.6591 15.2194 9.59515C16.061 8.53115 16.2514 7.27995 15.6466 6.79995ZM8.35378 8.42555C8.30418 8.48475 8.25458 8.54875 8.20658 8.60315C8.25458 8.54235 8.30258 8.48155 8.34738 8.41915L8.35378 8.42555ZM14.1378 8.71515C13.8226 9.11515 13.3826 9.29275 13.1554 9.11195C12.989 8.98075 12.9842 8.69435 13.1154 8.39355C13.2354 8.43195 13.357 8.47355 13.4818 8.52635C13.6722 8.60635 13.8866 8.51995 13.9666 8.33115C14.0466 8.14395 13.9586 7.92635 13.7698 7.84635C13.7138 7.82235 13.661 7.80475 13.605 7.78555C13.8626 7.59675 14.133 7.53915 14.2946 7.66875C14.5234 7.84955 14.4514 8.31835 14.1378 8.71515Z" fill="#DBDDE0"/>
</g>
<defs>
<clipPath id="clip0_0:54">
<rect width="16" height="16" fill="white"/>
</clipPath>
</defs>
</svg>
