<svg width="16" height="16" viewBox="0 0 16 16" fill="none" xmlns="http://www.w3.org/2000/svg">
<g clip-path="url(#clip0_0:64)">
<path d="M5.21114 4.46234C5.31834 4.68154 5.43354 4.87354 5.47834 5.10234C5.60314 5.73754 5.88954 6.30874 6.31834 6.78074C6.59034 7.07994 6.57434 7.38714 6.48154 7.69594C6.40154 7.96314 6.42554 8.15834 6.60314 8.36314C6.83994 8.63834 7.07674 8.91194 7.40474 9.08634C7.78394 9.28954 8.31514 9.25434 8.74394 8.91994C9.09434 8.64634 9.35674 8.29594 9.59994 7.92794C9.64314 7.86394 9.62554 7.80794 9.61274 7.74714C9.59674 7.67194 9.58234 7.59674 9.56634 7.52314C9.50074 7.22074 9.59034 6.98074 9.79674 6.74394C10.2095 6.26874 10.4847 5.71514 10.6127 5.09594C10.6591 4.87194 10.7775 4.68634 10.9023 4.48794C10.8991 4.56474 10.9023 4.64314 10.8911 4.71994C10.7727 5.51034 10.8623 6.29114 11.0031 7.06554C11.0623 7.38394 11.1663 7.69754 11.2943 7.99994C11.3695 8.17594 11.5487 8.17274 11.6863 8.22874C12.1839 8.42714 12.6671 8.65114 13.1247 8.93274C13.5391 9.18714 13.7487 9.57434 13.8959 10.0111C14.1263 10.6927 14.3279 11.3823 14.4655 12.0911C14.6159 12.8687 14.6751 13.6495 14.6303 14.4399C14.6095 14.7855 14.3919 14.9919 14.1023 15.1007C13.4159 15.3583 12.7087 15.5583 11.9887 15.7055C11.5647 15.7919 11.1391 15.8575 10.7167 15.9391C10.3967 16.0015 10.0831 15.9935 9.76474 15.9951C8.92634 16.0015 8.08634 15.9839 7.24794 16.0015C6.44154 16.0175 5.64954 15.9327 4.85594 15.7839C4.03834 15.6319 3.23194 15.4495 2.44474 15.1887C2.22234 15.1151 2.00314 15.0319 1.78714 14.9407C1.45274 14.7999 1.39994 14.4991 1.37594 14.1983C1.33914 13.7295 1.42394 13.2655 1.47354 12.8031C1.54074 12.1807 1.64794 11.5631 1.80154 10.9551C1.94554 10.3839 2.11994 9.82074 2.43354 9.31994C2.68474 8.91834 3.09114 8.69754 3.52794 8.53754C3.89114 8.40634 4.25594 8.27994 4.61914 8.14714C4.70234 8.11674 4.76154 8.06394 4.79994 7.96794C5.01754 7.40954 5.14234 6.83514 5.19674 6.23674C5.24474 5.71834 5.26714 5.20474 5.19034 4.68794C5.18234 4.62234 5.16794 4.55194 5.21114 4.46234ZM7.56154 13.7135C7.56154 13.8607 7.56794 13.9823 7.55994 14.1039C7.55194 14.2255 7.59034 14.2783 7.71994 14.2719C7.91194 14.2639 8.10394 14.2639 8.29594 14.2719C8.42714 14.2783 8.46074 14.2207 8.45754 14.1023C8.45114 13.8719 8.46234 13.6415 8.45274 13.4111C8.44794 13.2735 8.48794 13.2143 8.63674 13.2207C8.86714 13.2303 9.09754 13.2175 9.32794 13.2255C9.45434 13.2303 9.50074 13.1791 9.49914 13.0575C9.49594 12.8655 9.49114 12.6735 9.50074 12.4831C9.50874 12.3471 9.44314 12.3215 9.32794 12.3231C9.11034 12.3279 8.89274 12.3247 8.67514 12.3279C8.51674 12.3311 8.44154 12.2703 8.45114 12.0991C8.46394 11.8767 8.45274 11.6511 8.45754 11.4271C8.45914 11.3215 8.42394 11.2783 8.31194 11.2815C8.11354 11.2879 7.91514 11.2863 7.71674 11.2815C7.60474 11.2799 7.55514 11.3167 7.55834 11.4367C7.56474 11.6671 7.55194 11.8975 7.56314 12.1279C7.56954 12.2751 7.50234 12.3215 7.37114 12.3215C7.20474 12.3215 7.03834 12.3231 6.87194 12.3247C6.51514 12.3295 6.51514 12.3311 6.51674 12.6943C6.51834 13.2239 6.51834 13.2207 7.04474 13.2255C7.20954 13.2271 7.41914 13.1535 7.52474 13.2607C7.63354 13.3647 7.54394 13.5759 7.56154 13.7135ZM5.88474 3.73594C5.66714 3.73594 5.44954 3.73114 5.23194 3.73754C5.08634 3.74234 5.02714 3.68794 5.02234 3.53754C5.00954 3.16634 4.98394 2.79194 5.03514 2.42554C5.15834 1.55354 5.61914 0.577539 6.76794 0.227139C7.28474 0.0687393 7.80474 -0.0496607 8.33754 0.0191393C9.33914 0.147139 10.2207 0.519939 10.7103 1.47514C11.0255 2.08794 11.0239 2.76794 10.9967 3.44154C10.9951 3.50234 11.0047 3.56474 10.8895 3.54234C10.7999 3.52474 10.7855 3.64154 10.7711 3.70874C10.7487 3.81434 10.7183 3.83034 10.6175 3.77754C10.1807 3.54874 9.89434 3.19194 9.71834 2.74234C9.67034 2.61914 9.64954 2.59674 9.52634 2.68314C8.72794 3.23994 7.83994 3.55194 6.87514 3.67994C6.54554 3.72474 6.21594 3.73914 5.88474 3.73594Z" fill="#DBDDE0"/>
</g>
<defs>
<clipPath id="clip0_0:64">
<rect width="16" height="16" fill="white"/>
</clipPath>
</defs>
</svg>
